<svg xmlns="http://www.w3.org/2000/svg" viewBox="0 0 300 300">
  <circle cx="150" cy="150" r="120" fill="#264653"/>
  <rect x="90" y="90" width="120" height="120" rx="15" fill="#e76f51"/>
  <line x1="90" y1="120" x2="60" y2="120" stroke="#e9c46a" stroke-width="8"/>
  <line x1="90" y1="150" x2="60" y2="150" stroke="#e9c46a" stroke-width="8"/>
  <line x1="90" y1="180" x2="60" y2="180" stroke="#e9c46a" stroke-width="8"/>
  <line x1="210" y1="120" x2="240" y2="120" stroke="#e9c46a" stroke-width="8"/>
  <line x1="210" y1="150" x2="240" y2="150" stroke="#e9c46a" stroke-width="8"/>
  <line x1="210" y1="180" x2="240" y2="180" stroke="#e9c46a" stroke-width="8"/>
  <line x1="120" y1="90" x2="120" y2="60" stroke="#e9c46a" stroke-width="8"/>
  <line x1="150" y1="90" x2="150" y2="60" stroke="#e9c46a" stroke-width="8"/>
  <line x1="180" y1="90" x2="180" y2="60" stroke="#e9c46a" stroke-width="8"/>
  <line x1="120" y1="210" x2="120" y2="240" stroke="#e9c46a" stroke-width="8"/>
  <line x1="150" y1="210" x2="150" y2="240" stroke="#e9c46a" stroke-width="8"/>
  <line x1="180" y1="210" x2="180" y2="240" stroke="#e9c46a" stroke-width="8"/>
  
  <!-- Added larger text -->
  <text x="150" y="145" text-anchor="middle" fill="#03071e" font-family="Roboto" font-weight="bold" font-size="48">ALU</text>
  <text x="150" y="185" text-anchor="middle" fill="#03071e" font-family="Arial" font-size="36">viz</text>
</svg>
